<svg version="1.1" id="Layer_1" xmlns="http://www.w3.org/2000/svg" xmlns:xlink="http://www.w3.org/1999/xlink" x="0px" y="0px"
	 width="100%" viewBox="0 0 512 512" enable-background="new 0 0 512 512" xml:space="preserve">
<path fill="#7F8C8D" opacity="1.000000" stroke="none" 
	d="
M512.649414,459.661133 
	C513.000000,474.354218 513.000000,488.708466 513.000000,503.531342 
	C511.354187,508.017883 509.233948,511.563507 504.257996,512.761719 
	C339.645782,513.000000 175.291550,513.000000 10.468657,513.000000 
	C5.982036,511.354279 2.436554,509.233887 1.238237,504.257996 
	C1.000000,489.645782 1.000000,475.291534 1.000000,460.468658 
	C2.613108,457.866455 4.970295,457.763916 7.319613,457.750977 
	C16.808641,457.698792 26.299158,457.491302 35.785431,457.875549 
	C36.955582,457.922913 38.105846,458.102295 39.669868,457.399445 
	C76.013969,458.243835 111.909653,457.423828 147.800964,457.664764 
	C150.138779,457.680450 152.441208,457.384155 155.226868,457.110046 
	C156.948776,457.635468 158.156311,458.016174 159.556870,457.965546 
	C171.681854,457.527832 183.809601,457.479889 195.934845,457.991364 
	C196.794495,458.027618 197.575150,457.828705 198.805511,457.355896 
	C235.602509,458.269989 271.956696,457.442902 308.306671,457.632080 
	C310.145355,457.641663 311.933868,457.240692 314.230316,457.110229 
	C315.951843,457.636566 317.159607,458.015656 318.560089,457.965210 
	C330.685028,457.528534 342.812714,457.479340 354.937866,457.991638 
	C355.797577,458.027954 356.578064,457.827728 357.808655,457.355225 
	C394.644501,458.265350 431.037140,457.447998 467.425690,457.629303 
	C469.266266,457.638458 471.052734,457.197083 473.362854,457.132629 
	C475.397430,457.977386 477.012329,457.904480 478.709808,457.845612 
	C488.036804,457.522217 497.369415,457.652863 506.699371,457.766022 
	C508.663483,457.789825 510.756348,457.647736 512.649414,459.661133 
z"/>
<path fill="#000000" opacity="1.000000" stroke="none" 
	d="
M1.336974,354.236511 
	C1.000000,237.766510 1.017566,121.532990 0.914537,5.299583 
	C0.911471,1.840727 1.441860,0.876485 5.193562,0.888773 
	C55.816181,1.054573 106.439522,1.000000 157.531342,1.000000 
	C159.764618,4.334790 156.869965,5.387549 155.020447,6.755582 
	C148.361862,11.680750 144.484833,18.108723 144.253265,26.463936 
	C143.965118,36.860443 148.502060,44.580460 157.562973,49.659859 
	C159.551834,50.774784 161.943344,51.441921 162.542328,54.514446 
	C162.370834,55.571350 162.198135,56.302731 161.650696,56.670605 
	C154.030701,61.791069 152.993698,69.328926 153.164917,77.754494 
	C153.350372,86.880623 153.968063,96.055061 152.454468,105.531296 
	C148.157135,109.653328 142.814850,108.730057 138.105774,108.988953 
	C113.712921,110.330009 94.022026,120.871315 77.762131,138.570816 
	C76.544861,139.895844 74.657280,140.587662 73.928406,142.853455 
	C55.063801,167.866898 39.415195,194.154678 30.570307,224.098511 
	C26.515419,237.826080 23.179565,251.683746 22.056335,266.405701 
	C21.487753,270.648193 19.957689,274.352325 20.405598,278.764404 
	C18.928486,282.737427 20.284542,286.193390 20.666279,290.144287 
	C19.931021,304.657013 20.514563,318.714355 20.316359,332.765533 
	C20.267448,336.232910 20.518173,339.715820 19.663010,343.565796 
	C19.179415,344.937531 18.714109,345.934967 17.779463,346.262665 
	C12.654696,348.059143 7.921893,350.456696 4.026238,354.354401 
	C3.486062,354.894867 2.480522,354.759491 1.336974,354.236511 
z"/>
<path fill="#000000" opacity="1.000000" stroke="none" 
	d="
M379.762207,1.377571 
	C422.794739,1.000000 465.589966,1.087118 508.383575,0.866771 
	C512.717102,0.844457 513.096802,2.094621 513.093079,5.875781 
	C512.979004,121.604668 513.000000,237.333679 513.000000,353.531342 
	C511.569305,355.139618 509.976807,354.902527 508.950562,353.738220 
	C505.618927,349.958313 501.243713,348.123383 496.662994,346.547241 
	C495.881226,346.278320 495.319366,345.595734 494.705566,344.452545 
	C493.798065,342.486786 493.747375,340.811340 493.746094,339.158630 
	C493.719086,303.631317 493.468353,268.103729 493.862610,232.091537 
	C493.817657,230.962784 493.734161,230.325073 493.508087,229.219849 
	C495.056366,218.367416 494.308380,207.905487 494.525177,197.474991 
	C494.653259,191.313354 494.369263,185.211487 492.951111,178.752060 
	C493.226929,166.158203 488.848236,155.146484 484.379883,143.763107 
	C479.954407,135.151047 473.664734,128.625839 466.521790,122.881714 
	C455.691437,114.172211 442.999115,110.097000 429.428070,108.307961 
	C427.449554,108.047134 425.421906,107.906441 423.756714,105.865784 
	C422.115479,100.970390 422.793518,96.290382 422.727631,91.668922 
	C422.606873,83.197327 422.762146,74.722496 422.664673,66.250015 
	C422.576202,58.558186 420.428253,56.162281 412.730255,55.492321 
	C407.101440,55.002449 401.436676,55.422207 395.790924,55.247269 
	C393.974396,55.190987 392.122955,55.270180 390.032288,54.202072 
	C387.537720,52.037876 387.818451,49.436436 387.774231,46.990334 
	C387.627472,38.868965 387.652374,30.744650 387.733398,22.623343 
	C387.797272,16.222240 386.529419,10.456166 381.398926,6.059445 
	C380.151764,4.990664 379.015137,3.680672 379.762207,1.377571 
z"/>
<path fill="#95A5A5" opacity="1.000000" stroke="none" 
	d="
M513.000000,459.531342 
	C502.017792,460.000458 491.035583,460.013702 480.053436,459.988708 
	C478.241943,459.984589 476.381042,460.281952 474.320984,459.173218 
	C472.950256,457.224243 473.986115,455.739838 474.421417,454.165985 
	C475.803680,449.168457 473.634949,445.636963 468.555634,444.610382 
	C466.424377,444.179596 464.244202,444.296692 462.082520,444.295837 
	C431.293243,444.283417 400.503967,444.283386 369.714691,444.295654 
	C367.552887,444.296509 365.375092,444.191589 363.241180,444.608856 
	C357.766571,445.679352 355.719025,449.211884 357.549225,454.450775 
	C357.985382,455.699219 358.752228,456.847076 358.178711,458.647369 
	C357.566345,459.268494 357.137451,459.698486 356.699188,459.708221 
	C343.020630,460.012451 329.339569,460.506927 315.332764,459.221863 
	C313.975037,457.270325 315.002930,455.820557 315.509155,454.254974 
	C317.023682,449.570648 315.056915,446.047119 310.287964,444.766510 
	C308.173553,444.198730 305.994202,444.302521 303.835327,444.301117 
	C272.558472,444.280670 241.281631,444.281921 210.004791,444.295959 
	C209.006592,444.296417 208.007660,444.297852 207.011032,444.354248 
	C199.185165,444.797089 196.685303,448.417572 199.138107,455.777130 
	C199.407608,456.585785 199.545639,457.379944 199.181610,458.604065 
	C198.415192,459.274628 197.829590,459.801971 197.240326,459.806091 
	C183.719986,459.900940 170.194138,460.535553 156.341461,459.259705 
	C154.984085,457.321411 155.961761,455.872559 156.505814,454.306610 
	C158.242737,449.307465 156.269806,445.850616 151.097717,444.673401 
	C149.298752,444.263916 147.458160,444.304932 145.629364,444.303436 
	C114.010101,444.277740 82.390831,444.282196 50.771568,444.298248 
	C49.606663,444.298828 48.439808,444.295013 47.278839,444.393738 
	C40.446018,444.974670 37.975227,448.626709 39.976429,455.238403 
	C40.268345,456.202850 40.627396,457.123688 40.190796,458.533142 
	C38.320309,460.418060 36.245911,459.978424 34.296425,459.984680 
	C23.510147,460.019287 12.723702,460.001068 1.468657,460.000488 
	C1.000000,448.645782 1.000000,437.291534 1.000000,425.468658 
	C4.304753,415.674408 11.865025,412.823547 20.694212,412.836365 
	C41.612633,412.866730 62.545036,411.876038 83.449471,413.403656 
	C85.330185,413.541107 87.055191,412.970459 89.275673,412.400208 
	C98.063087,413.967621 106.379974,414.203552 115.186890,412.355133 
	C118.738083,413.321899 121.809410,413.581177 125.008255,412.901337 
	C127.120338,412.452484 129.326279,412.675537 131.491592,412.675415 
	C215.135712,412.670807 298.779877,412.705872 382.423828,412.586029 
	C387.366119,412.578949 392.331482,414.484924 397.741455,412.458893 
	C406.546234,413.719177 414.875702,414.356201 423.685913,412.406525 
	C428.376709,413.921600 432.668274,412.773041 436.943909,412.749603 
	C455.407349,412.648499 473.871521,412.670471 492.335510,412.720337 
	C495.533020,412.728973 498.659180,413.233490 501.686005,414.093292 
	C506.963196,415.592285 510.748749,418.853851 512.719360,424.621613 
	C513.000000,436.354218 513.000000,447.708466 513.000000,459.531342 
z"/>
<path fill="#67B9CC" opacity="1.000000" stroke="none" 
	d="
M379.532410,1.000000 
	C379.108490,2.517498 380.438812,2.552999 381.275299,3.133657 
	C387.183441,7.234845 390.203094,12.744321 390.055664,20.131718 
	C389.843689,30.751608 390.011505,41.379078 390.070618,52.464596 
	C389.816071,56.294701 387.110809,56.077866 384.907196,56.157669 
	C377.945801,56.409767 370.976776,56.513668 363.522552,56.044582 
	C345.732300,56.490200 328.434723,56.511765 310.651550,56.032860 
	C301.477142,56.430767 292.788147,56.521881 283.618042,56.026260 
	C277.696167,56.350304 272.255035,56.492020 266.328552,56.023567 
	C255.727982,56.582424 245.605804,56.300972 235.486237,56.222488 
	C233.517746,56.207218 231.464508,56.255180 229.492691,54.460381 
	C228.137695,51.971390 227.761795,49.706093 227.748398,47.364662 
	C227.692520,37.605911 227.515320,27.842592 227.816193,18.089989 
	C228.058258,10.243659 230.864746,3.901954 239.625153,1.278841 
	C245.354935,1.000000 250.709854,1.000000 256.532410,1.000000 
	C258.911957,2.471059 259.185272,4.551319 259.230499,6.765996 
	C259.308105,10.565994 259.126404,14.371551 259.408173,18.165783 
	C259.673645,21.740114 261.392242,24.084623 265.154724,24.450523 
	C268.574219,24.783068 271.484528,22.618559 272.308472,18.927063 
	C273.106293,15.352674 272.587524,11.677953 272.764893,8.052441 
	C272.875793,5.785999 272.434021,3.350069 274.727112,1.285654 
	C298.020905,1.000000 321.041779,1.000000 344.531342,1.000000 
	C346.718567,2.358550 347.177185,4.212818 347.213440,6.301493 
	C347.265350,9.291407 347.203918,12.282577 347.306427,15.270832 
	C347.509003,21.175119 349.991333,24.473623 354.192474,24.477905 
	C358.260040,24.482052 360.465942,21.476360 360.687347,15.559350 
	C360.799164,12.571309 360.682434,9.578807 360.793518,6.590270 
	C360.861481,4.761845 360.860229,2.897292 362.728333,1.284649 
	C368.354919,1.000000 373.709869,1.000000 379.532410,1.000000 
z"/>
<path fill="#000000" opacity="1.000000" stroke="none" 
	d="
M513.000000,424.531342 
	C512.509399,425.951813 511.869080,425.457275 511.591400,424.966766 
	C507.064697,416.970581 499.624084,414.998383 491.199036,414.998108 
	C469.140289,414.997406 447.081543,414.987305 424.563416,414.927490 
	C423.633514,412.435516 425.565094,411.690155 427.127228,410.951111 
	C438.745026,405.454681 445.511292,396.126923 448.701355,383.931122 
	C449.084930,382.464661 449.516571,381.056030 451.135742,379.875549 
	C453.849518,378.581757 456.373993,378.740601 458.860443,378.729218 
	C470.014923,378.678223 481.170532,378.630585 492.323853,378.737152 
	C498.645111,378.797516 504.169617,377.282318 508.367004,372.252960 
	C509.361420,371.061401 510.540955,370.173859 512.623535,370.766479 
	C513.000000,388.687561 513.000000,406.375122 513.000000,424.531342 
z"/>
<path fill="#000000" opacity="1.000000" stroke="none" 
	d="
M89.995277,414.506470 
	C68.146645,414.915527 46.393745,415.149536 24.645990,414.912231 
	C14.996831,414.806946 6.948473,417.203979 1.243370,425.330902 
	C1.000000,407.312439 1.000000,389.624878 1.000000,371.468658 
	C3.066244,369.672577 4.459558,370.896881 5.689807,372.335938 
	C9.791596,377.133881 15.091988,378.778748 21.238384,378.730408 
	C32.202671,378.644135 43.168633,378.682373 54.133747,378.725555 
	C56.616665,378.735321 59.124859,378.558716 61.934044,379.461731 
	C64.719688,380.523773 65.005936,382.790527 65.564110,384.822601 
	C68.795670,396.587250 75.510086,405.494537 86.673729,410.815948 
	C88.161942,411.525391 89.649330,412.317352 89.995277,414.506470 
z"/>
<path fill="#F0C419" opacity="1.000000" stroke="none" 
	d="
M162.301315,54.592789 
	C155.692703,51.392521 149.814087,48.355412 145.867157,41.981342 
	C138.286179,29.738510 141.630127,11.124354 155.591873,3.783921 
	C156.674957,3.214492 158.167984,2.961323 158.333496,1.254006 
	C164.687637,1.000000 171.375290,1.000000 178.531464,1.000000 
	C184.844650,2.799783 189.577667,5.929795 193.192078,11.098429 
	C202.703400,24.699621 197.348465,46.736172 183.351257,52.173065 
	C182.106094,52.656712 181.201202,53.723259 179.644043,54.530396 
	C178.963150,54.736660 178.680038,54.787739 177.977234,54.957760 
	C172.558456,56.602757 167.568771,57.162609 162.301315,54.592789 
z"/>
<path fill="#95A5A5" opacity="1.000000" stroke="none" 
	d="
M513.000000,370.532410 
	C511.482361,370.110779 511.386200,371.375336 510.879059,372.286377 
	C507.575897,378.220917 502.309204,380.933289 495.695190,380.972992 
	C481.116364,381.060516 466.536621,380.998505 451.490082,380.992310 
	C449.017456,380.048035 448.893402,378.188477 448.859283,376.362366 
	C448.669312,366.193573 445.015350,357.429535 438.289978,349.865570 
	C436.827209,348.220367 435.578827,346.431580 437.542969,343.858704 
	C439.755951,342.647400 441.780640,342.743744 443.758179,342.731079 
	C458.711945,342.635223 473.666199,342.635895 488.619812,342.735809 
	C490.893036,342.751007 493.330658,342.412598 495.625610,344.516907 
	C503.468903,344.802368 508.169434,349.422546 512.753174,354.326904 
	C513.000000,359.354919 513.000000,364.709869 513.000000,370.532410 
z"/>
<path fill="#95A5A5" opacity="1.000000" stroke="none" 
	d="
M63.340912,380.787842 
	C50.201859,380.991364 37.413506,380.646362 24.654911,381.113678 
	C14.854751,381.472595 6.537674,379.718658 1.255476,370.667419 
	C1.000000,365.645081 1.000000,360.290131 1.000000,354.467590 
	C3.092153,355.107117 3.271322,352.999146 3.915375,352.085297 
	C7.173803,347.461823 11.694577,345.339020 17.596621,344.903748 
	C19.311953,343.386475 20.986023,342.815613 22.895193,342.811951 
	C40.304092,342.778503 57.716335,342.201141 75.539360,343.305573 
	C78.400482,345.160492 77.923424,347.308899 76.356026,349.028259 
	C68.856544,357.254944 65.109993,366.884216 64.994232,377.980072 
	C64.983421,379.015869 64.452415,379.876007 63.340912,380.787842 
z"/>
<path fill="#000000" opacity="1.000000" stroke="none" 
	d="
M179.270782,53.261280 
	C185.382614,49.413055 190.578293,45.150623 193.582794,38.110928 
	C199.289352,24.740211 193.406555,9.166517 181.026016,3.488999 
	C180.012177,3.024079 178.802719,2.746864 178.665039,1.255295 
	C199.020889,1.000000 219.041794,1.000000 239.531342,1.000000 
	C241.152695,3.615445 238.335312,3.241752 237.466431,3.863641 
	C232.462234,7.445283 230.039703,12.206203 230.012863,18.239201 
	C229.962830,29.482065 229.990112,40.725273 229.938629,52.427849 
	C228.645569,55.172676 226.401947,55.185467 224.271072,55.209400 
	C214.873322,55.314976 205.473221,55.571396 195.583160,55.036987 
	C189.870346,54.896774 184.497696,56.581921 179.270782,53.261280 
z"/>
<path fill="#30A8CC" opacity="1.000000" stroke="none" 
	d="
M274.532043,1.000000 
	C274.980255,6.311486 275.030579,11.624394 274.922699,16.934090 
	C274.793762,23.280857 271.263672,27.104250 265.760345,27.048731 
	C259.840973,26.989014 257.060547,23.787191 257.006378,16.876247 
	C256.967346,11.896813 256.998444,6.916831 256.999146,1.468546 
	C262.688049,1.000000 268.376068,1.000000 274.532043,1.000000 
z"/>
<path fill="#30A8CC" opacity="1.000000" stroke="none" 
	d="
M362.532043,1.000000 
	C362.996002,6.463758 363.101501,11.930366 362.959412,17.390532 
	C362.792908,23.790173 359.694885,27.047029 354.085602,27.048283 
	C348.820435,27.049459 345.232788,23.284351 345.078644,17.333740 
	C344.945801,12.204347 345.034851,7.069207 345.012878,1.468304 
	C350.688049,1.000000 356.376068,1.000000 362.532043,1.000000 
z"/>
<path fill="#000000" opacity="1.000000" stroke="none" 
	d="
M504.491058,513.000000 
	C506.814453,509.800323 509.628937,506.600647 512.721680,503.700500 
	C513.000000,504.324158 513.000000,504.648285 513.000000,504.972443 
	C513.000000,513.000000 513.000000,513.000000 504.491058,513.000000 
z"/>
<path fill="#000000" opacity="1.000000" stroke="none" 
	d="
M1.000000,504.491058 
	C3.604573,502.849365 2.758127,505.758331 3.839683,506.518097 
	C6.282331,508.234039 8.377264,510.445007 10.306829,512.727295 
	C9.675850,513.000000 9.351700,513.000000 9.027550,513.000000 
	C1.000000,513.000000 1.000000,513.000000 1.000000,504.491058 
z"/>
<path fill="#EAEEEF" opacity="1.000000" stroke="none" 
	d="
M358.406921,459.129425 
	C355.030914,455.648773 352.653290,452.080872 355.029327,447.369781 
	C357.332794,442.802704 361.507751,442.192535 366.045532,442.196869 
	C399.467316,442.228912 432.889130,442.226074 466.310944,442.201477 
	C470.726715,442.198242 474.625427,443.099457 476.757080,447.470154 
	C478.823669,451.707458 477.274445,455.184692 474.140656,458.611481 
	C471.623047,459.831635 469.168365,460.033051 466.641144,460.030853 
	C432.831268,460.001160 399.021332,460.010132 365.211426,460.012970 
	C363.044891,460.013153 360.872437,460.090088 358.406921,459.129425 
z"/>
<path fill="#EAEEEF" opacity="1.000000" stroke="none" 
	d="
M199.409363,459.090210 
	C196.086487,455.566162 193.737610,451.983826 196.191681,447.292542 
	C198.558746,442.767517 202.735779,442.192841 207.261673,442.197174 
	C240.685425,442.229340 274.109222,442.221954 307.533020,442.209045 
	C311.943481,442.207336 315.843872,443.154510 317.919464,447.566071 
	C319.926422,451.831909 318.361938,455.293854 315.147827,458.670105 
	C312.615692,459.849304 310.155701,460.031708 307.632324,460.029602 
	C273.824371,460.001648 240.016403,460.008850 206.208420,460.015472 
	C204.037872,460.015869 201.872360,460.043762 199.409363,459.090210 
z"/>
<path fill="#EAEEEF" opacity="1.000000" stroke="none" 
	d="
M40.413097,459.031921 
	C37.333447,455.594635 34.957066,452.193054 37.144428,447.636169 
	C39.357555,443.025574 43.406712,442.192200 47.992306,442.196716 
	C81.410652,442.229584 114.829063,442.227203 148.247421,442.200043 
	C152.820908,442.196320 156.949539,442.976562 159.080353,447.639771 
	C161.034134,451.915558 159.400360,455.371185 156.159271,458.716431 
	C153.614105,459.889587 151.146622,460.029938 148.627625,460.028015 
	C114.984779,460.002655 81.341911,460.009888 47.699043,460.013794 
	C45.366283,460.014069 43.025837,460.113403 40.413097,459.031921 
z"/>
<path fill="#E64C3C" opacity="1.000000" stroke="none" 
	d="
M77.437218,345.435974 
	C57.721897,345.117737 38.324379,345.042358 18.463089,344.900330 
	C18.013311,326.792358 18.027304,308.751007 18.102123,290.228516 
	C18.787529,287.657806 18.346483,285.432861 18.986847,282.977417 
	C18.666697,280.801239 19.991810,279.315796 19.993715,277.189514 
	C22.086590,260.992828 31.560101,250.091827 43.802078,241.033112 
	C51.859722,235.070679 60.995796,231.798309 71.213821,230.240540 
	C75.508522,229.735016 79.286972,228.493744 83.685181,228.399139 
	C86.153519,228.378769 88.182411,228.651733 90.680222,228.557037 
	C91.735977,228.726746 92.339684,228.850784 93.419327,228.991394 
	C118.583473,228.478348 143.275696,228.405685 168.453339,229.073242 
	C180.928986,229.436172 192.921509,230.097183 205.370438,228.674469 
	C216.216660,228.801727 226.592651,228.626190 237.446045,228.782593 
	C244.693375,228.812363 251.460571,228.585266 258.711395,228.770386 
	C284.264648,228.475586 309.338928,228.762421 334.412262,228.680496 
	C337.567383,228.670181 340.725891,228.609451 344.360718,228.962677 
	C356.534973,228.531265 368.220215,228.486115 380.389801,228.967850 
	C388.915253,228.432571 396.967834,228.798187 405.491028,228.758301 
	C412.709961,229.006393 419.461243,228.219757 426.684082,229.050491 
	C447.961029,228.243912 468.759125,228.829910 489.553436,228.731064 
	C491.399109,228.722290 493.201019,228.995880 495.371765,229.905457 
	C495.885864,268.031799 495.942963,305.975769 496.000458,344.376801 
	C476.600830,344.920105 457.200806,345.006317 437.325195,345.143951 
	C435.009888,346.564453 433.457642,345.577606 431.838379,344.653229 
	C417.765625,336.619476 403.829163,336.739838 390.086517,345.464539 
	C388.629944,346.389282 387.149994,346.955994 384.978119,346.755798 
	C378.906982,347.443329 373.250244,347.330109 367.596161,347.329803 
	C292.360687,347.325653 217.125183,347.327393 141.889694,347.327209 
	C138.063034,347.327209 134.230606,347.431061 130.005249,346.649841 
	C127.096695,347.037048 125.085663,346.026886 123.013412,344.817688 
	C109.727783,337.065491 96.350204,336.397980 82.908203,344.500275 
	C81.350441,345.439270 79.724472,346.393799 77.437218,345.435974 
z"/>
<path fill="#E64C3C" opacity="1.000000" stroke="none" 
	d="
M424.689026,105.851486 
	C451.588409,107.091324 471.771576,118.906273 485.800903,141.681427 
	C484.399536,144.430786 481.962524,144.028534 479.255554,144.146545 
	C472.081299,144.221634 465.386353,144.399521 458.212219,144.215134 
	C435.677521,144.537018 413.616730,144.232971 391.557129,144.318604 
	C388.405457,144.330826 385.250488,144.388107 381.619324,144.037491 
	C369.433289,144.472977 357.735901,144.506561 345.552368,144.037796 
	C334.063354,144.629745 323.050537,144.165619 311.564209,144.249374 
	C304.325195,143.973068 297.555450,144.789719 290.314178,143.949860 
	C261.588318,144.580719 233.349915,144.565140 204.623566,143.927444 
	C192.792557,143.516769 181.449356,143.112717 169.623032,143.909698 
	C160.772354,144.694412 152.382324,144.149521 143.527222,144.242249 
	C136.613464,144.214508 130.178177,144.420853 123.254997,144.215210 
	C108.694229,144.416946 94.617462,144.358200 80.541771,144.273087 
	C77.792099,144.256470 74.853447,144.802429 72.164200,142.370331 
	C91.740562,116.569214 118.245224,105.651268 150.387451,106.002182 
	C153.145203,104.889977 155.613602,104.690712 158.130066,104.689590 
	C206.896530,104.667854 255.662979,104.654739 304.429443,104.701752 
	C305.928314,104.703201 307.423492,104.797340 309.406799,104.957802 
	C327.240479,104.505730 344.582184,104.496536 362.412659,104.961655 
	C381.723419,104.361198 400.549835,104.773064 419.374268,104.743324 
	C421.037109,104.740692 422.714844,104.843010 424.689026,105.851486 
z"/>
<path fill="#547580" opacity="1.000000" stroke="none" 
	d="
M310.372040,106.492081 
	C287.892090,106.888512 265.778809,106.971344 243.665497,106.992714 
	C214.898026,107.020515 186.130524,107.006310 157.363052,106.984634 
	C155.380707,106.983139 153.398514,106.769180 151.125397,106.327950 
	C150.889587,94.515022 151.049988,83.027374 150.963547,71.541595 
	C150.903549,63.569042 154.429337,58.076340 161.788544,54.514458 
	C167.039719,53.466747 172.249466,54.818233 177.638214,53.125923 
	C180.145782,54.600090 180.167633,56.788132 180.227615,58.969372 
	C180.341812,63.121620 180.128738,67.279633 180.395508,71.427544 
	C180.631287,75.093689 182.434845,77.431030 186.295181,77.440369 
	C190.049240,77.449448 192.132187,75.288422 192.524933,71.640228 
	C192.952332,67.670288 192.612381,63.668907 192.774246,59.686031 
	C192.860199,57.571335 192.500488,55.290161 194.740479,53.405952 
	C206.346634,53.077045 217.659012,53.017902 229.431732,52.923058 
	C231.490311,54.596298 233.589539,53.955814 235.485977,53.971600 
	C245.360321,54.053791 255.235458,54.039700 265.580139,54.104439 
	C268.109344,55.580849 268.166870,57.755169 268.228302,59.944813 
	C268.335571,63.766640 268.043335,67.604202 268.450409,71.409027 
	C268.880829,75.431335 271.356750,77.675514 274.964691,77.459984 
	C278.861450,77.227226 280.443024,74.795891 280.632080,71.176720 
	C280.822998,67.522141 280.641113,63.861221 280.782501,60.206707 
	C280.858459,58.242298 280.621124,56.152103 282.680908,54.393013 
	C291.681061,54.099300 300.396027,54.080524 309.580963,54.106567 
	C312.046448,55.598839 312.205994,57.762585 312.230255,59.931885 
	C312.383484,73.644623 312.395386,87.357887 312.216034,101.070305 
	C312.192596,102.859818 312.239105,104.752892 310.372040,106.492081 
z"/>
<path fill="#31A7CA" opacity="1.000000" stroke="none" 
	d="
M71.611282,142.134003 
	C88.614235,141.998703 105.331696,142.048706 122.513069,142.157074 
	C124.668289,145.083786 122.896233,147.411926 121.585487,149.625580 
	C106.661583,174.830048 92.113029,200.253387 77.276825,225.508743 
	C75.830597,227.970627 74.379700,230.393631 71.322006,231.835358 
	C55.227589,235.343292 41.733387,242.500595 31.670715,255.475037 
	C26.824356,261.723724 23.363003,268.659607 20.945761,276.549438 
	C17.976135,273.783020 20.202253,270.016144 19.788073,266.207825 
	C21.163015,247.991302 25.787382,230.960526 31.545164,214.174423 
	C39.316002,191.519485 50.996986,170.969818 64.993889,151.647339 
	C67.197472,148.605331 69.219704,145.431946 71.611282,142.134003 
z"/>
<path fill="#6190A6" opacity="1.000000" stroke="none" 
	d="
M19.671566,266.072144 
	C20.142282,269.287903 20.261580,272.771759 20.615734,276.581360 
	C20.550482,278.631378 20.250370,280.355621 19.871777,282.448792 
	C17.474533,282.602325 18.957100,280.803345 18.642637,279.410370 
	C18.940105,274.795441 19.130123,270.567871 19.671566,266.072144 
z"/>
<path fill="#8D7A83" opacity="1.000000" stroke="none" 
	d="
M18.442524,279.289246 
	C18.966473,280.108765 19.182863,281.194489 19.596275,282.548981 
	C19.380526,284.942657 18.967752,287.067627 18.358963,289.469971 
	C18.153622,286.350067 18.144295,282.952789 18.442524,279.289246 
z"/>
<path fill="#31A7CB" opacity="1.000000" stroke="none" 
	d="
M478.641510,142.351517 
	C480.978821,142.155869 482.978363,142.102737 485.405396,142.038818 
	C490.698181,152.884232 495.145630,163.852982 494.994141,176.507385 
	C496.104156,180.190125 495.436859,183.526566 495.462219,186.806320 
	C495.568817,200.586014 495.464630,214.366837 495.610565,228.623810 
	C495.832428,229.297913 495.883240,229.515594 495.837921,229.920685 
	C492.556671,231.055099 489.202972,230.550293 485.892273,230.556259 
	C466.564117,230.591156 447.235809,230.540802 427.445953,230.433899 
	C424.520508,227.334106 426.922028,224.928787 428.251495,222.691528 
	C436.329681,209.097305 444.477386,195.543655 452.632263,181.994827 
	C459.325928,170.873779 465.984955,159.732101 472.662109,148.601212 
	C474.124573,146.163315 475.498291,143.676392 478.641510,142.351517 
z"/>
<path fill="#35495E" opacity="1.000000" stroke="none" 
	d="
M425.100586,105.539551 
	C423.886322,107.607277 422.094238,106.965874 420.534485,106.968636 
	C401.668335,107.002014 382.802032,106.970657 363.471191,106.894531 
	C360.962006,105.421097 360.798859,103.251656 360.773529,101.080231 
	C360.613342,87.353355 360.603271,73.625900 360.786041,59.899319 
	C360.809906,58.106838 360.774567,56.212765 362.661713,54.485992 
	C371.868713,53.954403 380.707062,53.762432 389.834747,53.248169 
	C399.207977,53.576859 408.386688,51.847309 417.407806,53.946152 
	C423.331848,55.324429 424.974762,57.457424 424.992340,63.668907 
	C425.031403,77.470398 425.032593,91.271996 425.100586,105.539551 
z"/>
<path fill="#68B6C8" opacity="1.000000" stroke="none" 
	d="
M495.763428,228.628815 
	C494.573029,226.904465 495.018036,224.536118 495.011688,222.239853 
	C494.970734,207.460236 494.986633,192.680450 494.986237,177.428253 
	C496.520447,178.061798 495.820770,179.690033 495.824829,181.064194 
	C495.871368,196.761719 495.841644,212.459473 495.763428,228.628815 
z"/>
<path fill="#000000" opacity="1.000000" stroke="none" 
	d="
M398.994995,414.496460 
	C397.905640,414.914154 396.908264,414.994354 395.910858,414.994354 
	C302.615204,414.993866 209.319580,414.987183 115.564621,414.927490 
	C114.669151,412.188843 116.879784,411.549957 118.544800,410.722839 
	C129.585617,405.238251 136.441315,396.442963 139.526886,384.594147 
	C140.026810,382.674408 140.416779,380.682678 142.895325,379.554749 
	C146.049194,378.439392 148.907043,378.695801 151.723267,378.694580 
	C221.876389,378.664459 292.029510,378.668243 362.182648,378.682281 
	C364.681030,378.682800 367.183807,378.647736 370.084717,379.169373 
	C372.644623,379.937805 373.691437,381.459686 374.200226,383.573334 
	C377.218445,396.111877 384.329071,405.411011 396.062836,411.024933 
	C397.432098,411.680023 398.684753,412.498352 398.994995,414.496460 
z"/>
<path fill="#364A5E" opacity="1.000000" stroke="none" 
	d="
M399.339050,414.917053 
	C387.799896,410.296844 379.226257,403.058258 374.362122,391.813477 
	C372.971100,388.597748 372.074493,385.320099 371.985809,381.401886 
	C369.469604,379.068573 369.843292,376.288788 369.796753,373.649567 
	C369.628998,364.140656 373.708954,356.283234 379.390411,349.050476 
	C380.917236,347.106812 383.192078,346.430115 385.707275,345.341248 
	C397.007690,337.573517 408.811798,334.426697 421.988525,337.896118 
	C427.226837,339.275421 431.820587,341.891785 436.532776,345.067993 
	C446.887085,354.659790 452.125854,366.073364 451.018463,380.526825 
	C450.610840,395.005066 439.449280,409.044220 424.310547,414.600342 
	C415.998810,416.121918 407.890045,416.388916 399.339050,414.917053 
z"/>
<path fill="#364A5E" opacity="1.000000" stroke="none" 
	d="
M142.313538,380.683716 
	C141.605392,395.105042 130.521057,409.048035 115.312027,414.600372 
	C106.998306,416.140381 98.887466,416.368683 90.334030,414.918518 
	C76.873344,409.464294 67.540024,400.678101 63.749416,386.661896 
	C63.308525,385.031647 63.022564,383.468048 62.986874,381.401978 
	C61.890305,367.016083 66.367790,355.225128 76.948257,345.475403 
	C88.041794,337.643585 99.815460,334.357819 113.009361,337.893433 
	C118.238647,339.294769 122.851852,341.871277 127.566620,345.057434 
	C139.271194,350.001160 142.352341,360.146423 144.043182,370.945343 
	C144.524780,374.021210 145.161530,377.564728 142.313538,380.683716 
z"/>
<path fill="#3F5C6C" opacity="1.000000" stroke="none" 
	d="
M362.562012,54.094673 
	C363.021423,71.403618 363.012512,88.660851 363.005066,106.375504 
	C345.649536,106.873306 328.292542,106.913712 310.470428,106.893555 
	C310.011627,89.577118 310.017914,72.321243 310.037537,54.608376 
	C327.398499,54.115246 344.746094,54.079105 362.562012,54.094673 
z"/>
<path fill="#3F5C6C" opacity="1.000000" stroke="none" 
	d="
M282.502167,54.077873 
	C282.984497,60.091553 283.098633,66.066742 282.991547,72.037971 
	C282.903595,76.942513 279.991730,79.847557 275.356750,80.009651 
	C269.947021,80.198837 266.369598,77.519402 266.116821,72.482880 
	C265.826050,66.689514 266.031738,60.871223 266.035889,54.606758 
	C271.379425,54.112392 276.708832,54.075031 282.502167,54.077873 
z"/>
<path fill="#405C6C" opacity="1.000000" stroke="none" 
	d="
M194.568863,53.072784 
	C195.023224,59.106503 195.095490,65.078453 194.977798,71.046669 
	C194.859406,77.050743 191.826157,80.019844 186.099533,80.009918 
	C180.780121,80.000702 178.034729,77.011993 177.983994,71.010254 
	C177.936325,65.372299 177.998840,59.733402 178.035645,53.638519 
	C178.219437,53.122204 178.380447,53.062283 178.783600,52.913628 
	C184.051651,52.886391 189.077576,52.947887 194.568863,53.072784 
z"/>
<path fill="#95A5A5" opacity="1.000000" stroke="none" 
	d="
M142.489395,380.992249 
	C143.205444,366.980682 138.632904,355.226471 128.059418,345.473145 
	C128.714157,345.146606 129.544678,345.056671 130.375183,345.056732 
	C215.299667,345.063538 300.224152,345.077087 385.623383,345.140015 
	C376.138794,354.685333 370.737213,366.027588 371.974121,380.520569 
	C295.636566,380.987854 219.296127,380.992767 142.489395,380.992249 
z"/>
<path fill="#30A8CC" opacity="1.000000" stroke="none" 
	d="
M203.785309,142.479904 
	C232.485611,142.131134 260.826660,142.117020 289.640442,142.159546 
	C292.719513,145.424683 290.134460,147.967239 288.738861,150.338791 
	C280.992065,163.503174 272.906250,176.465500 265.037476,189.558594 
	C257.765656,201.658432 250.564133,213.800629 243.205002,225.848267 
	C242.047668,227.742905 240.852798,229.468491 238.300949,230.339233 
	C227.681168,230.525330 217.391861,230.550720 206.646240,230.579681 
	C205.250397,230.474838 204.245911,230.614944 203.153534,229.508224 
	C201.557861,227.205429 201.731094,224.986923 201.724487,222.844955 
	C201.649460,198.526871 201.655640,174.208664 201.716370,149.890533 
	C201.720932,148.065216 201.690643,146.217453 202.605865,144.030518 
	C203.026199,143.332886 203.226120,143.073730 203.785309,142.479904 
z"/>
<path fill="#2FA8CC" opacity="1.000000" stroke="none" 
	d="
M310.724823,142.424866 
	C322.048431,142.166092 333.075012,142.121002 344.573059,142.074158 
	C347.184082,143.686432 347.240143,146.061264 347.250793,148.389725 
	C347.367096,173.790375 347.391083,199.191193 347.229919,224.591675 
	C347.217499,226.549133 347.311035,228.636566 345.191406,230.439224 
	C316.511597,230.672943 288.228638,230.599930 259.483490,230.461182 
	C257.101440,228.050125 258.515625,225.943069 259.676849,224.002213 
	C275.112366,198.203552 290.558655,172.411209 306.153534,146.708328 
	C307.213043,144.962067 308.594696,143.566269 310.724823,142.424866 
z"/>
<path fill="#30A7CB" opacity="1.000000" stroke="none" 
	d="
M142.765396,142.426422 
	C151.321289,142.183914 159.576553,142.153351 168.282501,142.158356 
	C168.983292,142.404663 169.233444,142.615417 169.797821,143.202606 
	C171.342636,145.509995 171.272400,147.700851 171.278564,149.844681 
	C171.348557,174.212402 171.344147,198.580185 171.281982,222.947906 
	C171.277344,224.764740 171.305176,226.603134 170.378143,228.769745 
	C169.912201,229.438324 169.694962,229.683472 169.061035,230.188965 
	C143.728958,230.471939 118.813545,230.494568 93.435959,230.431335 
	C90.654953,227.804657 92.600906,225.585678 93.735802,223.554474 
	C99.898048,212.525452 106.401550,201.691559 112.747147,190.766983 
	C120.677269,177.114487 128.715500,163.525055 136.592346,149.841278 
	C138.145782,147.142639 139.328049,144.074585 142.765396,142.426422 
z"/>
<path fill="#30A8CC" opacity="1.000000" stroke="none" 
	d="
M380.545227,142.425293 
	C406.293427,142.070786 431.704315,142.086624 457.584290,142.157990 
	C459.943970,144.572968 458.507538,146.555496 457.330750,148.564621 
	C447.699524,165.008377 437.736450,181.253571 427.977875,197.621170 
	C422.461395,206.873657 416.878754,216.086624 411.368347,225.342636 
	C410.157532,227.376526 408.869629,229.256638 406.263947,230.370300 
	C397.984497,230.563919 390.032471,230.592377 381.626678,230.687958 
	C378.991302,229.451752 378.797485,227.272125 378.782928,225.088699 
	C378.610138,199.200638 378.592590,173.312363 378.798553,147.424423 
	C378.811615,145.784058 378.857910,144.068771 380.545227,142.425293 
z"/>
<path fill="#BD3D2F" opacity="1.000000" stroke="none" 
	d="
M380.427246,142.031021 
	C380.886078,171.336807 380.889618,200.618668 381.033051,230.327789 
	C369.359283,230.798752 357.545593,230.842438 345.263245,230.816025 
	C344.920105,226.767456 345.150024,222.789093 345.154266,218.810486 
	C345.181305,193.536942 345.158508,168.263351 345.098328,142.531097 
	C356.686981,142.050644 368.329468,142.028870 380.427246,142.031021 
z"/>
<path fill="#68B6C8" opacity="1.000000" stroke="none" 
	d="
M406.391418,230.672272 
	C414.629150,215.852219 423.316925,201.166107 432.015747,186.486557 
	C440.630890,171.948135 449.257111,157.416290 457.965912,142.547516 
	C464.722504,142.155365 471.391632,142.097229 478.520050,142.124054 
	C462.934845,169.043945 446.882996,195.874466 430.859283,222.721771 
	C429.503998,224.992477 428.336792,227.375397 427.033295,230.027374 
	C420.294708,231.507782 413.559662,230.684036 406.391418,230.672272 
z"/>
<path fill="#68B6C9" opacity="1.000000" stroke="none" 
	d="
M310.559265,142.125275 
	C305.584137,153.468964 298.305725,163.642441 292.023499,174.404053 
	C281.207001,192.933029 270.166290,211.331131 259.120483,230.089798 
	C252.320816,231.446869 245.584671,230.718002 238.417618,230.649628 
	C254.675751,202.639069 271.385712,174.780991 288.071014,146.908157 
	C288.826599,145.645935 289.359253,144.250244 290.054443,142.566437 
	C296.774353,142.157227 303.435547,142.098297 310.559265,142.125275 
z"/>
<path fill="#66B9CC" opacity="1.000000" stroke="none" 
	d="
M142.598450,142.130981 
	C138.330048,152.708099 131.851166,162.222244 126.173859,172.185287 
	C115.222511,191.403717 104.118988,210.535431 93.026176,230.024292 
	C92.552467,230.503738 92.131142,230.662003 91.368507,230.846710 
	C88.924675,230.111755 86.758041,230.632782 84.314331,230.741364 
	C79.973587,231.329865 75.939949,231.729935 71.476746,232.104736 
	C82.370949,212.541733 93.705803,193.010406 105.013954,173.463638 
	C110.918205,163.257812 116.775497,153.024826 122.815491,142.509766 
	C129.361618,142.159454 135.746246,142.103470 142.598450,142.130981 
z"/>
<path fill="#C03A2B" opacity="1.000000" stroke="none" 
	d="
M195.016830,291.999756 
	C195.010590,298.156342 195.106918,303.815552 194.967926,309.468933 
	C194.840073,314.668945 190.981552,318.847656 186.550690,318.896484 
	C181.975143,318.946869 177.993195,314.554291 177.976105,309.217804 
	C177.930283,294.909851 177.912338,280.601410 177.987549,266.293701 
	C178.018585,260.391235 180.979691,257.222198 186.212997,257.086029 
	C190.894974,256.964203 194.947876,261.238922 194.991806,266.543976 
	C195.060684,274.862091 195.014328,283.181152 195.016830,291.999756 
z"/>
<path fill="#C03A2B" opacity="1.000000" stroke="none" 
	d="
M154.655243,266.864044 
	C158.624161,269.463593 160.910645,272.443268 159.395111,277.106781 
	C157.846603,281.871735 154.374268,283.251984 149.685410,283.088348 
	C144.026917,282.890961 138.353912,283.137970 132.692429,282.990540 
	C128.063919,282.870026 125.213463,279.964050 124.990540,275.537323 
	C124.728706,270.337982 127.237785,266.406281 131.898636,266.215668 
	C139.349884,265.910858 146.857361,265.257141 154.655243,266.864044 
z"/>
<path fill="#8B757D" opacity="1.000000" stroke="none" 
	d="
M169.133545,230.542999 
	C168.644379,230.449326 168.724182,230.420731 168.761688,230.440460 
	C169.888306,228.836746 171.389465,227.935730 173.361206,227.872330 
	C182.310623,227.584534 191.259842,227.475983 200.206955,227.944595 
	C201.401123,228.007141 202.477036,228.395157 203.693558,229.645294 
	C204.624374,230.081589 205.176239,230.174011 205.959015,230.424866 
	C194.000870,230.601074 181.811783,230.618881 169.133545,230.542999 
z"/>
<path fill="#8B757D" opacity="1.000000" stroke="none" 
	d="
M84.439583,231.011322 
	C86.090164,230.119003 88.219032,230.181961 90.696762,230.734360 
	C88.975449,230.946411 86.923691,231.019638 84.439583,231.011322 
z"/>
<path fill="#A3514D" opacity="1.000000" stroke="none" 
	d="
M169.369110,143.351593 
	C169.006790,143.002777 168.793915,142.623947 168.763535,142.408936 
	C180.220337,142.151489 191.707504,142.109055 203.669617,142.105927 
	C204.144547,142.145248 204.056641,142.606644 203.963120,142.822067 
	C202.778061,144.432571 201.327560,145.076035 199.575348,145.134796 
	C190.821381,145.428345 182.067368,145.451157 173.314606,145.114258 
	C171.981125,145.062927 170.679581,144.794113 169.369110,143.351593 
z"/>
<path fill="#7E8B8D" opacity="1.000000" stroke="none" 
	d="
M392.621033,364.780457 
	C399.360992,355.423492 409.003723,351.974792 418.459412,355.288818 
	C428.314117,358.742737 433.585327,366.729248 433.203400,377.627777 
	C432.875854,386.973602 426.455872,395.101410 417.062378,397.400665 
	C408.021240,399.613647 400.120392,397.178345 394.334869,389.811493 
	C388.318909,382.151245 387.786804,373.744110 392.621033,364.780457 
z"/>
<path fill="#7E8B8D" opacity="1.000000" stroke="none" 
	d="
M84.833282,362.936951 
	C91.309685,355.637665 98.881401,352.292084 108.236778,354.977692 
	C116.974014,357.485901 122.433823,363.270050 124.131210,372.346802 
	C125.845444,381.513702 121.294586,391.012054 113.070755,395.482635 
	C104.911301,399.918182 94.679527,398.752533 87.975502,392.623627 
	C80.697639,385.970123 78.456398,375.761108 82.429230,367.144531 
	C83.052963,365.791718 83.882164,364.533661 84.833282,362.936951 
z"/>
<path fill="#C03A2B" opacity="1.000000" stroke="none" 
	d="
M168.931335,143.466034 
	C180.321045,143.008087 191.635300,143.013397 203.409576,143.028107 
	C203.920090,171.710068 203.970596,200.382660 204.046814,229.522202 
	C192.632584,230.099167 181.192673,230.209167 169.275970,230.389679 
	C168.818100,201.616547 168.836990,172.772919 168.931335,143.466034 
z"/>
</svg>